<svg viewBox="0 0 800 460" xmlns="http://www.w3.org/2000/svg">
  <rect x="0" y="0" width="800" height="460" fill="#ffffff"/>

  <!-- Actor: User -->
  <circle cx="90" cy="150" r="18" fill="none" stroke="#1e2a38" stroke-width="3"/>
  <line x1="90" y1="168" x2="90" y2="235" stroke="#1e2a38" stroke-width="3"/>
  <line x1="55" y1="190" x2="125" y2="190" stroke="#1e2a38" stroke-width="3"/>
  <line x1="90" y1="235" x2="60" y2="285" stroke="#1e2a38" stroke-width="3"/>
  <line x1="90" y1="235" x2="120" y2="285" stroke="#1e2a38" stroke-width="3"/>
  <text x="90" y="310" text-anchor="middle" font-family="Segoe UI, Arial" font-size="16" font-weight="600" fill="#1e2a38">User</text>

  <!-- System boundary -->
  <rect x="230" y="35" width="530" height="390" rx="14" fill="#f4f6f8" stroke="#1e2a38" stroke-width="2"/>
  <text x="495" y="65" text-anchor="middle" font-family="Segoe UI, Arial" font-size="16" font-weight="700" fill="#1e2a38">SQL Query Safety &amp; Privacy Risk Agent</text>

  <!-- Use case 1 -->
  <ellipse cx="500" cy="150" rx="200" ry="48" fill="#ffffff" stroke="#4da3ff" stroke-width="2.5"/>
  <text x="500" y="143" text-anchor="middle" font-family="Segoe UI, Arial" font-size="14" font-weight="600" fill="#1e2a38">Analyze Query</text>
  <text x="500" y="163" text-anchor="middle" font-family="Segoe UI, Arial" font-size="12" fill="#333">(Generate SQL + Audit for Risk)</text>

  <!-- Use case 2 -->
  <ellipse cx="500" cy="265" rx="170" ry="42" fill="#ffffff" stroke="#4da3ff" stroke-width="2.5"/>
  <text x="500" y="271" text-anchor="middle" font-family="Segoe UI, Arial" font-size="14" font-weight="600" fill="#1e2a38">View Query History</text>

  <!-- Use case 3 -->
  <ellipse cx="500" cy="365" rx="170" ry="42" fill="#ffffff" stroke="#4da3ff" stroke-width="2.5"/>
  <text x="500" y="371" text-anchor="middle" font-family="Segoe UI, Arial" font-size="14" font-weight="600" fill="#1e2a38">View Single Analysis</text>

  <!-- Association lines -->
  <line x1="126" y1="185" x2="303" y2="140" stroke="#5a6b7b" stroke-width="1.5"/>
  <line x1="126" y1="195" x2="333" y2="255" stroke="#5a6b7b" stroke-width="1.5"/>
  <line x1="120" y1="230" x2="333" y2="358" stroke="#5a6b7b" stroke-width="1.5"/>
</svg>
